<svg width="37" height="36" viewBox="0 0 37 36" fill="none" xmlns="http://www.w3.org/2000/svg">
<g id="analytics 1" clip-path="url(#clip0)">
<g id="Group">
<g id="Group_2">
<path id="Vector" d="M34.3441 30.2964C35.6944 30.2964 36.793 29.2256 36.793 27.9094V3.60193C36.793 1.71726 35.2198 0.18396 33.2862 0.18396L4.39061 0.18396C2.45699 0.18396 0.883865 1.71726 0.883865 3.60193L0.883865 27.9094C0.883865 29.2256 1.98246 30.2964 3.33277 30.2964H4.11007V33.8168H1.58522C1.19786 33.8168 0.883865 34.1229 0.883865 34.5004C0.883865 34.8778 1.19786 35.184 1.58522 35.184H36.0916C36.479 35.184 36.793 34.8778 36.793 34.5004C36.793 34.1229 36.479 33.8168 36.0916 33.8168H33.5668V30.2964H34.3441ZM2.28657 3.60193C2.28657 2.47113 3.23044 1.55115 4.39061 1.55115L33.2862 1.55115C34.4464 1.55115 35.3903 2.47113 35.3903 3.60193V5.10583H2.35698C2.3332 5.10583 2.30971 5.10707 2.28657 5.10932V3.60193ZM8.59871 33.8168H5.51277V27.6644H8.59871V33.8168ZM16.4538 33.8168H13.3679V20.1061H16.4538V33.8168ZM24.3089 33.8168H21.223V25.8871H24.3089V33.8168ZM32.8654 17.7181H28.3768C27.9894 17.7181 27.6754 18.0243 27.6754 18.4017V21.8538C27.6754 22.2313 27.9894 22.5374 28.3768 22.5374C28.7641 22.5374 29.0781 22.2313 29.0781 21.8538V19.0853H32.1641V33.8168H29.0781V26.451C29.0781 26.0736 28.7641 25.7675 28.3768 25.7675C27.9894 25.7675 27.6754 26.0736 27.6754 26.451V33.8168H25.7116V25.2035C25.7116 24.826 25.3977 24.5199 25.0103 24.5199H20.5217C20.1343 24.5199 19.8203 24.826 19.8203 25.2035V33.8168H17.8565V19.4225C17.8565 19.045 17.5425 18.7389 17.1552 18.7389H12.6665C12.2792 18.7389 11.9652 19.045 11.9652 19.4225V33.8168H10.0014V26.9808C10.0014 26.6034 9.68742 26.2972 9.30006 26.2972H4.81142C4.42407 26.2972 4.11007 26.6034 4.11007 26.9808V28.9292H3.33277C2.75584 28.9292 2.28657 28.4718 2.28657 27.9094V6.46954C2.30971 6.47179 2.3332 6.47302 2.35698 6.47302H35.3903V27.9094C35.3903 28.4718 34.9209 28.9292 34.3441 28.9292H33.5668V18.4017C33.5668 18.0243 33.2528 17.7181 32.8654 17.7181Z" fill="white"/>
</g>
</g>
<g id="Group_3">
<g id="Group_4">
<path id="Vector_2" d="M32.3043 2.6449H16.4584C16.071 2.6449 15.757 2.95101 15.757 3.32849C15.757 3.70597 16.071 4.01208 16.4584 4.01208H32.3043C32.6917 4.01208 33.0057 3.70597 33.0057 3.32849C33.0057 2.95101 32.6917 2.6449 32.3043 2.6449Z" fill="#0d47a1"/>
</g>
</g>
<g id="Group_5">
<g id="Group_6">
<path id="Vector_3" d="M8.67376 2.84519C8.54331 2.71804 8.36236 2.6449 8.1779 2.6449C7.99345 2.6449 7.8125 2.71797 7.68205 2.84519C7.5516 2.97234 7.47655 3.14871 7.47655 3.32849C7.47655 3.50828 7.5516 3.68464 7.68205 3.81172C7.8125 3.93894 7.99345 4.01208 8.1779 4.01208C8.36236 4.01208 8.54331 3.93894 8.67376 3.81172C8.80421 3.68464 8.87925 3.50828 8.87925 3.32849C8.87925 3.14871 8.80421 2.97234 8.67376 2.84519Z" fill="#0d47a1"/>
</g>
</g>
<g id="Group_7">
<g id="Group_8">
<path id="Vector_4" d="M5.86836 2.84519C5.73791 2.71804 5.55696 2.6449 5.37251 2.6449C5.18805 2.6449 5.0071 2.71797 4.87665 2.84519C4.7462 2.97234 4.67116 3.14871 4.67116 3.32849C4.67116 3.50828 4.7462 3.68464 4.87665 3.81172C5.0071 3.93894 5.18805 4.01208 5.37251 4.01208C5.55696 4.01208 5.73791 3.93894 5.86836 3.81172C5.99881 3.68464 6.07386 3.50828 6.07386 3.32849C6.07386 3.14871 5.99881 2.97234 5.86836 2.84519Z" fill="#0d47a1"/>
</g>
</g>
<g id="Group_9">
<g id="Group_10">
<path id="Vector_5" d="M11.4792 2.84519C11.3487 2.71804 11.1685 2.6449 10.9833 2.6449C10.7988 2.6449 10.6179 2.71797 10.4874 2.84519C10.357 2.97234 10.282 3.14871 10.282 3.32849C10.282 3.50828 10.357 3.68464 10.4874 3.81172C10.6179 3.93894 10.7988 4.01208 10.9833 4.01208C11.1678 4.01208 11.3487 3.93894 11.4792 3.81172C11.6096 3.68464 11.6847 3.50828 11.6847 3.32849C11.6847 3.14871 11.6096 2.97234 11.4792 2.84519Z" fill="#0d47a1"/>
</g>
</g>
<g id="Group_11">
<g id="Group_12">
<path id="Vector_6" d="M28.8726 23.8069C28.7422 23.6791 28.5612 23.6066 28.3768 23.6066C28.1923 23.6066 28.0114 23.6791 27.8809 23.8069C27.7505 23.9341 27.6754 24.1104 27.6754 24.2902C27.6754 24.47 27.7505 24.6464 27.8809 24.7735C28.0114 24.9006 28.1923 24.9738 28.3768 24.9738C28.5612 24.9738 28.7422 24.9007 28.8726 24.7735C29.0031 24.6464 29.0781 24.47 29.0781 24.2902C29.0781 24.1097 29.0031 23.9341 28.8726 23.8069Z" fill="#0d47a1"/>
</g>
</g>
<g id="Group_13">
<g id="Group_14">
<path id="Vector_7" d="M30.6211 9.47665C29.2288 9.47665 28.0962 10.5806 28.0962 11.9376C28.0962 12.4766 28.2754 12.9754 28.5781 13.3812L23.9194 17.922C23.5579 17.7269 23.1425 17.6155 22.7008 17.6155C22.3028 17.6155 21.9262 17.7061 21.591 17.8667L16.7265 13.1253C16.9266 12.7729 17.0409 12.3681 17.0409 11.9376C17.0409 10.5806 15.9083 9.47665 14.5161 9.47665C13.1238 9.47665 11.9912 10.5806 11.9912 11.9376C11.9912 12.4119 12.1299 12.855 12.3694 13.2311L8.22769 17.2678C7.86615 17.0728 7.45081 16.9614 7.00917 16.9614C5.61692 16.9614 4.48431 18.0653 4.48431 19.4223C4.48431 20.7793 5.61692 21.8833 7.00917 21.8833C8.40142 21.8833 9.53403 20.7793 9.53403 19.4223C9.53403 18.9918 9.4197 18.587 9.21961 18.2346L13.4107 14.1496C13.7448 14.3088 14.1199 14.3985 14.5161 14.3985C14.9577 14.3985 15.373 14.287 15.7346 14.092L20.5515 18.7869C20.3136 19.1622 20.176 19.6038 20.176 20.0763C20.176 21.4333 21.3086 22.5373 22.7008 22.5373C24.0931 22.5373 25.2257 21.4333 25.2257 20.0763C25.2257 19.6458 25.1114 19.241 24.9113 18.8886L29.6948 14.2261C29.9819 14.337 30.2942 14.3985 30.6211 14.3985C32.0133 14.3985 33.1459 13.2946 33.1459 11.9376C33.1459 10.5806 32.0133 9.47665 30.6211 9.47665ZM7.00924 20.5162C6.39051 20.5162 5.88708 20.0255 5.88708 19.4225C5.88708 18.8194 6.39051 18.3287 7.00924 18.3287C7.62797 18.3287 8.1314 18.8194 8.1314 19.4225C8.1314 20.0255 7.62797 20.5162 7.00924 20.5162ZM14.5161 13.0313C13.8974 13.0313 13.394 12.5407 13.394 11.9376C13.394 11.3345 13.8974 10.8438 14.5161 10.8438C15.1349 10.8438 15.6383 11.3345 15.6383 11.9376C15.6383 12.5407 15.1349 13.0313 14.5161 13.0313ZM22.7009 21.1702C22.0822 21.1702 21.5787 20.6795 21.5787 20.0765C21.5787 19.4734 22.0822 18.9827 22.7009 18.9827C23.3196 18.9827 23.823 19.4734 23.823 20.0765C23.823 20.6795 23.3196 21.1702 22.7009 21.1702ZM30.6211 13.0313C30.0024 13.0313 29.4989 12.5407 29.4989 11.9376C29.4989 11.3345 30.0024 10.8438 30.6211 10.8438C31.2398 10.8438 31.7432 11.3345 31.7432 11.9376C31.7432 12.5407 31.2398 13.0313 30.6211 13.0313Z" fill="#0d47a1"/>
</g>
</g>
<g id="Group_15">
<g id="Group_16">
<path id="Vector_8" d="M11.287 8.99898C11.1558 8.87183 10.9756 8.79861 10.7911 8.79861C10.606 8.79861 10.425 8.87176 10.2946 8.99898C10.1641 9.12606 10.0898 9.30242 10.0898 9.48221C10.0898 9.66199 10.1641 9.83836 10.2946 9.96551C10.4257 10.0927 10.606 10.1658 10.7911 10.1658C10.9756 10.1658 11.1558 10.0927 11.287 9.96551C11.4174 9.83836 11.4925 9.66199 11.4925 9.48221C11.4925 9.30242 11.4174 9.12606 11.287 8.99898Z" fill="white"/>
</g>
</g>
<g id="Group_17">
<g id="Group_18">
<path id="Vector_9" d="M8.17791 8.79868H4.81143C4.42407 8.79868 4.11008 9.10479 4.11008 9.48227C4.11008 9.85975 4.42407 10.1659 4.81143 10.1659H8.17791C8.56526 10.1659 8.87926 9.85975 8.87926 9.48227C8.87926 9.10479 8.56526 8.79868 8.17791 8.79868Z" fill="white"/>
</g>
</g>
<g id="Group_19">
<g id="Group_20">
<path id="Vector_10" d="M8.17791 12.0799H4.81143C4.42407 12.0799 4.11008 12.386 4.11008 12.7635C4.11008 13.141 4.42407 13.4471 4.81143 13.4471H8.17791C8.56526 13.4471 8.87926 13.141 8.87926 12.7635C8.87926 12.386 8.56526 12.0799 8.17791 12.0799Z" fill="#0d47a1"/>
</g>
</g>
</g>
<defs>
<clipPath id="clip0">
<rect width="35.9091" height="35" fill="#0d47a1" transform="translate(0.883865 0.18396)"/>
</clipPath>
</defs>
</svg>
