<svg width="38" height="38" viewBox="0 0 38 38" fill="none" xmlns="http://www.w3.org/2000/svg">
<g id="user 1" clip-path="url(#clip0)">
<g id="Group">
<g id="Group_2">
<path id="Vector" d="M19.0234 0.202377C8.60215 0.202377 0.123825 8.50148 0.123825 18.7024C0.123825 23.1701 1.75044 27.2728 4.45434 30.4733C4.46127 30.4826 4.4619 30.4943 4.46946 30.5029C6.42178 32.8074 8.87368 34.5741 11.6059 35.7156C11.6374 35.7285 11.6683 35.7427 11.6998 35.7557C11.9209 35.8469 12.1446 35.9314 12.3688 36.0141C12.457 36.0467 12.5452 36.08 12.6347 36.1115C12.8281 36.1793 13.0228 36.2435 13.2187 36.3051C13.344 36.3446 13.4694 36.3834 13.596 36.4204C13.7693 36.471 13.9432 36.5197 14.1183 36.566C14.272 36.6067 14.427 36.6443 14.582 36.6807C14.7388 36.7177 14.8963 36.7547 15.0545 36.7874C15.2308 36.8244 15.4091 36.857 15.5881 36.8891C15.7317 36.915 15.8747 36.9421 16.0196 36.965C16.218 36.9964 16.4177 37.0211 16.6181 37.0464C16.7472 37.0624 16.8757 37.0809 17.0055 37.0945C17.2323 37.1179 17.461 37.1345 17.6903 37.15C17.7968 37.1574 17.9026 37.1685 18.0097 37.174C18.3442 37.1925 18.6825 37.2024 19.0234 37.2024C19.3642 37.2024 19.7025 37.1925 20.0383 37.1752C20.1454 37.1697 20.2512 37.1586 20.3577 37.1512C20.587 37.1352 20.8157 37.1191 21.0425 37.0957C21.1722 37.0821 21.3007 37.0636 21.4299 37.0476C21.6302 37.0223 21.8299 36.9976 22.0284 36.9662C22.1726 36.9434 22.3163 36.9162 22.4599 36.8903C22.6382 36.8583 22.8165 36.8256 22.9935 36.7886C23.1516 36.7553 23.3085 36.7189 23.466 36.6819C23.621 36.6449 23.776 36.6073 23.9297 36.5672C24.1048 36.5216 24.2787 36.4722 24.4519 36.4217C24.5786 36.3847 24.7039 36.3458 24.8293 36.3064C25.0252 36.2447 25.2199 36.1806 25.4133 36.1127C25.5021 36.0813 25.5903 36.048 25.6791 36.0153C25.904 35.9327 26.1271 35.8476 26.3482 35.7569C26.3797 35.744 26.4106 35.7298 26.4421 35.7168C29.1737 34.5754 31.6262 32.8086 33.5785 30.5041C33.5861 30.4955 33.5867 30.4832 33.5936 30.4745C36.2963 27.2728 37.9229 23.1701 37.9229 18.7024C37.9229 8.50148 29.4446 0.202377 19.0234 0.202377ZM26.6821 34.2547C26.6726 34.259 26.6638 34.264 26.6544 34.2683C26.4294 34.3743 26.2008 34.4742 25.9702 34.5717C25.9179 34.5933 25.8662 34.6155 25.814 34.637C25.6124 34.7197 25.4082 34.798 25.2029 34.8732C25.1172 34.9047 25.0315 34.9355 24.9452 34.9651C24.7631 35.0286 24.5804 35.0897 24.3959 35.1476C24.2812 35.1834 24.1659 35.2173 24.0506 35.2506C23.8868 35.2987 23.7224 35.345 23.5561 35.3881C23.4162 35.4245 23.2751 35.4578 23.134 35.4905C22.986 35.525 22.8385 35.5602 22.6892 35.591C22.5261 35.6249 22.3616 35.6539 22.1978 35.6829C22.0649 35.707 21.9326 35.7322 21.7984 35.7532C21.6138 35.7816 21.4274 35.8044 21.2415 35.8272C21.1237 35.842 21.0065 35.8593 20.8875 35.8716C20.6752 35.8938 20.461 35.908 20.2474 35.9228C20.1523 35.929 20.0578 35.9394 19.9614 35.9444C19.6496 35.9604 19.3371 35.969 19.0234 35.969C18.7096 35.969 18.3971 35.9604 18.0859 35.9444C17.9902 35.9394 17.8957 35.9296 17.7999 35.9228C17.5857 35.9086 17.3722 35.8938 17.1599 35.8716C17.0408 35.8593 16.9236 35.842 16.8058 35.8272C16.62 35.8044 16.4335 35.7816 16.2489 35.7532C16.1147 35.7322 15.9824 35.707 15.8495 35.6829C15.6851 35.6539 15.5206 35.6243 15.3581 35.591C15.2088 35.5602 15.0608 35.525 14.9133 35.4905C14.7722 35.4572 14.6311 35.4245 14.4912 35.3881C14.3256 35.345 14.1605 35.2981 13.9967 35.2506C13.8814 35.2173 13.7661 35.1834 13.6515 35.1476C13.4669 35.0897 13.2836 35.0286 13.1021 34.9651C13.0158 34.9349 12.9301 34.9041 12.8445 34.8732C12.6391 34.798 12.435 34.7197 12.2334 34.637C12.1811 34.6161 12.1301 34.5939 12.0778 34.5723C11.8472 34.4755 11.6185 34.375 11.393 34.2689C11.3835 34.2646 11.3747 34.2603 11.3653 34.2553C9.16725 33.2144 7.22564 31.7369 5.65005 29.9424C6.86781 25.5529 10.3151 22.0145 14.7502 20.6066C14.8377 20.6591 14.9291 20.7059 15.0192 20.7553C15.0721 20.7842 15.1244 20.8151 15.1779 20.8428C15.3657 20.9403 15.5559 21.0315 15.7506 21.1135C15.8999 21.1777 16.0542 21.2319 16.208 21.2874C16.2382 21.2979 16.2684 21.3096 16.2987 21.3201C17.1529 21.6161 18.067 21.7857 19.0234 21.7857C19.9797 21.7857 20.8938 21.6161 21.7474 21.3201C21.7776 21.3096 21.8079 21.2979 21.8381 21.2874C21.9918 21.2319 22.1462 21.1777 22.2955 21.1135C22.4902 21.0315 22.6804 20.9403 22.8681 20.8428C22.9217 20.8145 22.974 20.7842 23.0269 20.7553C23.117 20.7059 23.209 20.6591 23.2972 20.606C27.7323 22.0145 31.1789 25.5529 32.3973 29.9417C30.8217 31.7356 28.8801 33.2132 26.6821 34.2547ZM12.0935 13.769C12.0935 10.029 15.2025 6.98571 19.0234 6.98571C22.8442 6.98571 25.9532 10.029 25.9532 13.769C25.9532 16.1481 24.6926 18.2417 22.7932 19.4529C22.545 19.6107 22.2867 19.7519 22.0214 19.8753C21.99 19.8901 21.9591 19.9055 21.9276 19.9197C20.1031 20.7318 17.9436 20.7318 16.1191 19.9197C16.0876 19.9055 16.0561 19.8901 16.0253 19.8753C15.7594 19.7519 15.5017 19.6107 15.2535 19.4529C13.3541 18.2417 12.0935 16.1481 12.0935 13.769ZM33.3423 28.7682C31.9141 24.6403 28.6558 21.3041 24.4929 19.7193C26.1579 18.251 27.2132 16.1309 27.2132 13.769C27.2132 9.34878 23.5391 5.75238 19.0234 5.75238C14.5076 5.75238 10.8336 9.34878 10.8336 13.769C10.8336 16.1309 11.8888 18.251 13.5545 19.7193C9.39152 21.3047 6.13325 24.6403 4.70507 28.7682C2.61793 25.9322 1.38379 22.4566 1.38379 18.7024C1.38379 9.18166 9.29703 1.43571 19.0234 1.43571C28.7497 1.43571 36.6629 9.18166 36.6629 18.7024C36.6629 22.4566 35.4288 25.9322 33.3423 28.7682Z" fill="white"/>
</g>
</g>
</g>
<defs>
<clipPath id="clip0">
<rect width="37.7991" height="37" fill="white" transform="translate(0.123825 0.202377)"/>
</clipPath>
</defs>
</svg>
